<svg width="473" height="117" viewBox="0 0 449 109" fill="none" xmlns="http://www.w3.org/2000/svg">
<g filter="url(#filter0_d_70_5)">
<path d="M39.0645 15C55.6189 15.0001 68.4612 18.8832 77.5918 26.6484C86.7224 34.4138 91.2881 45.8056 91.2881 60.8242C91.288 75.8428 86.7224 87.2347 77.5918 95C68.4612 102.765 55.6188 106.648 39.0645 106.648H4C4 106.648 15.5 90.0078 22 90.0078C28.5 90.0078 37.6562 90.0078 37.6562 90.0078C48.4081 90.0078 56.5579 87.6611 62.1045 82.9678C67.6509 78.2745 70.4238 70.8932 70.4238 60.8242C70.4238 50.6696 67.6511 43.2877 62.1045 38.6797C56.5579 33.9864 48.4081 31.6397 37.6562 31.6396C37.6562 31.6396 29 31.6396 22 31.6396C15 31.6396 4 15 4 15H39.0645Z" fill="#4CD5D2"/>
<circle cx="18.5" cy="61.5" r="14.5" fill="#4CD5D2"/>
<path d="M151.76 96H115.92C113.445 96 111.312 95.1467 109.52 93.44C107.813 91.648 106.96 89.5147 106.96 87.04V60.16C106.96 57.6853 107.813 55.5947 109.52 53.888C111.312 52.096 113.445 51.2 115.92 51.2H142.8C145.275 51.2 147.365 52.096 149.072 53.888C150.864 55.5947 151.76 57.6853 151.76 60.16V69.12L142.8 78.08H117.2L124.88 70.4H142.8V58.88H115.92V88.32H151.76V96ZM190.155 69.12L181.195 78.08H159.435L168.395 69.12H190.155ZM249.07 78.08H214.51V96H204.27V51.2L213.23 42.24H204.27V33.28H249.07V42.24H214.51V76.8L222.19 69.12H249.07V78.08ZM300.3 69.12H291.34V58.88H273.42V96H264.46V51.2H273.42V57.6L279.82 51.2H291.34C293.815 51.2 295.905 52.096 297.612 53.888C299.404 55.5947 300.3 57.6853 300.3 60.16V69.12ZM359.135 87.04C359.135 89.5147 358.239 91.648 356.447 93.44C354.74 95.1467 352.65 96 350.175 96H323.295C320.82 96 318.687 95.1467 316.895 93.44C315.188 91.648 314.335 89.5147 314.335 87.04V60.16C314.335 57.6853 315.188 55.5947 316.895 53.888C318.687 52.096 320.82 51.2 323.295 51.2H350.175C352.65 51.2 354.74 52.096 356.447 53.888C358.239 55.5947 359.135 57.6853 359.135 60.16V87.04ZM350.175 88.32V58.88H323.295V88.32H350.175ZM413.565 51.2L405.757 58.88H384.125V69.12H402.045C404.52 69.12 406.61 70.016 408.317 71.808C410.109 73.5147 411.005 75.6053 411.005 78.08V87.04C411.005 89.5147 410.109 91.648 408.317 93.44C406.61 95.1467 404.52 96 402.045 96H375.165V88.32H402.045V76.8H384.125C381.65 76.8 379.517 75.9467 377.725 74.24C376.018 72.448 375.165 70.3147 375.165 67.84V60.16C375.165 57.6853 376.018 55.5947 377.725 53.888C379.517 52.096 381.65 51.2 384.125 51.2H413.565ZM456.4 96H438.48C436.005 96 433.872 95.1467 432.08 93.44C430.373 91.648 429.52 89.5147 429.52 87.04V58.88H416.72L424.4 51.2H429.52V42.24L438.48 33.28V51.2H456.4V58.88H438.48V88.32H456.4V96Z" fill="#4CD5D2"/>
</g>
<defs>
<filter id="filter0_d_70_5" x="0" y="0" width="477" height="122" filterUnits="userSpaceOnUse" color-interpolation-filters="sRGB">
<feFlood flood-opacity="0" result="BackgroundImageFix"/>
<feColorMatrix in="SourceAlpha" type="matrix" values="0 0 0 0 0 0 0 0 0 0 0 0 0 0 0 0 0 0 127 0" result="hardAlpha"/>
<feOffset dy="6"/>
<feGaussianBlur stdDeviation="2"/>
<feComposite in2="hardAlpha" operator="out"/>
<feColorMatrix type="matrix" values="0 0 0 0 0 0 0 0 0 0 0 0 0 0 0 0 0 0 0.25 0"/>
<feBlend mode="normal" in2="BackgroundImageFix" result="effect1_dropShadow_70_5"/>
<feBlend mode="normal" in="SourceGraphic" in2="effect1_dropShadow_70_5" result="shape"/>
</filter>
</defs>
</svg>
