<svg width="400" height="46" viewBox="0 0 400 46" fill="none" xmlns="http://www.w3.org/2000/svg">
<path d="M29.9372 41L37.0872 0.375H54.3772C60.0539 0.375 64.0406 1.39333 66.3372 3.43C68.6772 5.42333 69.8472 8.58667 69.8472 12.92C69.8472 15.1733 69.5872 17.7733 69.0672 20.72C68.2439 25.4 67.0306 29.235 65.4272 32.225C63.8672 35.215 61.6356 37.425 58.7322 38.855C55.8722 40.285 52.0372 41 47.2272 41H29.9372ZM34.5522 3.3L7.05725 0.375H35.0722L34.5522 3.3ZM33.5122 9.54L5.95225 6.615H33.9672L33.5122 9.54ZM44.1072 30.6H49.2422C50.6722 30.6 51.8422 30.4267 52.7522 30.08C53.7056 29.7333 54.3339 28.7583 54.6372 27.155L56.9122 14.22C56.9556 14.0033 56.9772 13.83 56.9772 13.7C56.9772 13.5267 56.9772 13.3533 56.9772 13.18C56.9772 12.0533 56.5656 11.3817 55.7422 11.165C54.9622 10.905 53.9439 10.775 52.6872 10.775H47.5522L44.1072 30.6ZM32.4072 15.78L4.84725 12.855H32.9272L32.4072 15.78ZM31.3022 22.02L3.74225 19.095H31.8222L31.3022 22.02ZM30.1972 28.26L2.63725 25.335H30.7172L30.1972 28.26ZM29.0922 34.5L1.53225 31.575H29.6122L29.0922 34.5ZM27.9872 40.805L0.427246 37.88H28.5072L27.9872 40.805ZM84.5906 41L90.5706 6.615H113.451L110.396 16.365H99.8006L99.0206 20.785H108.771L107.666 27.025H97.9806L97.2006 31.445H109.226L107.536 41H84.5906ZM87.9706 9.54L60.4106 6.615H88.4256L87.9706 9.54ZM86.8656 15.78L59.3056 12.855H87.3856L86.8656 15.78ZM85.7606 22.02L58.2006 19.095H86.2806L85.7606 22.02ZM84.6556 28.26L57.0956 25.335H85.1756L84.6556 28.26ZM83.5506 34.5L55.9906 31.575H84.0706L83.5506 34.5ZM82.4456 40.805L54.8856 37.88H82.9656L82.4456 40.805ZM136.152 22.02L115.092 19.095H136.672L136.152 22.02ZM135.047 28.26L113.987 25.335H135.567L135.047 28.26ZM149.971 41L157.121 0.375H182.471L179.026 10.775H167.586L166.676 16.235H177.206L175.451 25.92H164.921L162.321 41H149.971ZM154.586 3.3L127.091 0.375H155.106L154.586 3.3ZM153.546 9.54L125.986 6.615H154.001L153.546 9.54ZM152.441 15.78L124.881 12.855H152.961L152.441 15.78ZM151.336 22.02L123.776 19.095H151.856L151.336 22.02ZM150.231 28.26L122.671 25.335H150.751L150.231 28.26ZM149.126 34.5L121.566 31.575H149.646L149.126 34.5ZM148.021 40.805L120.461 37.88H148.541L148.021 40.805ZM193.262 41L199.242 6.615H215.752C218.179 6.615 220.064 6.98333 221.407 7.72C222.794 8.45666 223.769 9.475 224.332 10.775C224.939 12.075 225.242 13.5483 225.242 15.195C225.242 16.495 225.047 18.0767 224.657 19.94C224.311 21.8033 223.639 23.6233 222.642 25.4C221.689 27.1333 220.281 28.52 218.417 29.56L222.122 41H209.967L207.497 30.99H205.937L204.182 41H193.262ZM196.642 9.54L169.082 6.615H197.097L196.642 9.54ZM195.537 15.78L167.977 12.855H196.057L195.537 15.78ZM207.497 22.085H209.577C210.444 22.085 211.181 21.9767 211.787 21.76C212.437 21.5 212.827 20.9583 212.957 20.135L213.347 17.86C213.347 17.7733 213.347 17.7083 213.347 17.665C213.391 17.5783 213.412 17.5133 213.412 17.47C213.412 16.8633 213.087 16.495 212.437 16.365C211.831 16.1917 211.007 16.105 209.967 16.105H208.537L207.497 22.085ZM194.432 22.02L166.872 19.095H194.952L194.432 22.02ZM193.327 28.26L165.767 25.335H193.847L193.327 28.26ZM192.222 34.5L164.662 31.575H192.742L192.222 34.5ZM191.117 40.805L163.557 37.88H191.637L191.117 40.805ZM253.628 41.78C248.905 41.78 245.59 40.87 243.683 39.05C241.82 37.1867 240.888 34.4133 240.888 30.73C240.888 29.7333 240.953 28.65 241.083 27.48C241.213 26.31 241.386 25.0967 241.603 23.84C242.296 19.8533 243.315 16.5383 244.658 13.895C246.001 11.2517 247.886 9.28 250.313 7.98C252.74 6.63666 255.946 5.965 259.933 5.965C264.7 5.965 268.058 6.89666 270.008 8.76C271.958 10.58 272.933 13.3533 272.933 17.08C272.933 18.0333 272.868 19.095 272.738 20.265C272.608 21.3917 272.435 22.5833 272.218 23.84C271.525 27.7833 270.506 31.0983 269.163 33.785C267.82 36.4283 265.913 38.4217 263.443 39.765C260.973 41.1083 257.701 41.78 253.628 41.78ZM245.828 8.76L225.873 6.615H248.493C247.453 7.22166 246.565 7.93666 245.828 8.76ZM241.733 15.455L217.163 12.855H242.838C242.665 13.2883 242.47 13.7217 242.253 14.155C242.08 14.545 241.906 14.9783 241.733 15.455ZM251.678 31.9H255.513C256.64 31.9 257.55 31.77 258.243 31.51C258.98 31.25 259.435 30.5567 259.608 29.43L262.078 15.845H258.113C257.073 15.845 256.185 15.975 255.448 16.235C254.711 16.495 254.256 17.1667 254.083 18.25L251.678 31.9ZM239.978 21.825L214.563 19.095H240.563L239.978 21.825ZM239.003 28.065L213.393 25.335H239.328C239.285 25.8117 239.22 26.2883 239.133 26.765C239.09 27.1983 239.046 27.6317 239.003 28.065ZM239.198 34.305L213.653 31.575H238.938C238.938 32.0517 238.96 32.5283 239.003 33.005C239.09 33.4383 239.155 33.8717 239.198 34.305ZM241.993 40.285L219.308 37.88H240.303C240.52 38.3133 240.758 38.7467 241.018 39.18C241.321 39.57 241.646 39.9383 241.993 40.285ZM302.494 41.78C300.458 41.78 298.378 41.6717 296.254 41.455C294.174 41.2383 292.116 40.8483 290.079 40.285L293.264 30.665C296.644 31.6183 299.894 32.095 303.014 32.095C303.794 32.095 304.531 32.095 305.224 32.095C305.961 32.0517 306.719 31.9867 307.499 31.9L307.824 29.82L303.729 29.365C300.133 28.975 297.619 28.13 296.189 26.83C294.759 25.53 294.044 23.7533 294.044 21.5C294.044 21.0233 294.066 20.5033 294.109 19.94C294.196 19.3767 294.283 18.8133 294.369 18.25C294.933 15.13 295.778 12.6817 296.904 10.905C298.074 9.12833 299.699 7.87167 301.779 7.135C303.903 6.355 306.676 5.965 310.099 5.965C314.216 5.965 318.094 6.42 321.734 7.33L318.614 16.82C317.098 16.4733 315.711 16.2133 314.454 16.04C313.198 15.8667 311.833 15.78 310.359 15.78C309.536 15.78 308.864 15.8017 308.344 15.845C307.824 15.845 307.196 15.8883 306.459 15.975L306.134 17.86L309.384 18.25C313.198 18.6833 315.884 19.6583 317.444 21.175C319.048 22.6917 319.849 24.5983 319.849 26.895C319.849 27.285 319.828 27.6967 319.784 28.13C319.741 28.5633 319.676 28.9967 319.589 29.43C319.069 32.42 318.246 34.76 317.119 36.45C315.993 38.14 314.649 39.375 313.089 40.155C311.529 40.8917 309.839 41.3467 308.019 41.52C306.199 41.6933 304.358 41.78 302.494 41.78ZM295.539 9.345L270.189 6.615H298.204C297.684 7.005 297.186 7.41666 296.709 7.85C296.276 8.28333 295.886 8.78167 295.539 9.345ZM292.874 15.78L265.704 12.855H293.719C293.546 13.2883 293.394 13.765 293.264 14.285C293.134 14.7617 293.004 15.26 292.874 15.78ZM292.094 22.02L264.534 19.095H292.224C292.181 19.485 292.138 19.8967 292.094 20.33C292.094 20.72 292.094 21.11 292.094 21.5V22.02ZM294.564 28.26L267.069 25.335H292.679C293.069 26.4617 293.698 27.4367 294.564 28.26ZM289.949 34.435L262.844 31.575H290.859L289.949 34.435ZM287.869 40.805L260.699 37.88H288.779L287.869 40.805ZM340.83 41L345.12 16.365H337.905L339.66 6.615H365.335L363.58 16.365H356.56L352.27 41H340.83ZM337.06 9.54L309.5 6.615H337.515L337.06 9.54ZM335.955 15.78L308.395 12.855H336.475L335.955 15.78ZM342.195 22.02L314.635 19.095H342.715L342.195 22.02ZM341.09 28.26L313.53 25.335H341.61L341.09 28.26ZM339.985 34.5L312.425 31.575H340.505L339.985 34.5ZM338.88 40.805L311.32 37.88H339.4L338.88 40.805Z" fill="url(#paint0_linear_53_2)"/>
<defs>
<linearGradient id="paint0_linear_53_2" x1="11" y1="31" x2="369" y2="31" gradientUnits="userSpaceOnUse">
<stop stop-color="#4A39CC"/>
<stop offset="1" stop-color="#2491BA"/>
</linearGradient>
</defs>
</svg>
